<svg width="500" height="18" viewBox="0 0 500 18" fill="none" xmlns="http://www.w3.org/2000/svg">
<rect y="6.07477" width="500" height="2.5" rx="1.25" fill="#E2E8F0"/>
<rect x="229" y="0.347839" width="41" height="17" fill="white"/>
<path d="M248.824 8.90909C248.824 9.98295 248.63 10.911 248.242 11.6932C247.854 12.4754 247.322 13.0786 246.646 13.5028C245.97 13.9271 245.198 14.1392 244.33 14.1392C243.461 14.1392 242.689 13.9271 242.013 13.5028C241.337 13.0786 240.805 12.4754 240.417 11.6932C240.029 10.911 239.835 9.98295 239.835 8.90909C239.835 7.83523 240.029 6.9072 240.417 6.125C240.805 5.3428 241.337 4.73958 242.013 4.31534C242.689 3.8911 243.461 3.67898 244.33 3.67898C245.198 3.67898 245.97 3.8911 246.646 4.31534C247.322 4.73958 247.854 5.3428 248.242 6.125C248.63 6.9072 248.824 7.83523 248.824 8.90909ZM247.631 8.90909C247.631 8.02746 247.483 7.28338 247.188 6.67685C246.897 6.07031 246.5 5.61127 246 5.29972C245.503 4.98816 244.946 4.83239 244.33 4.83239C243.713 4.83239 243.155 4.98816 242.654 5.29972C242.157 5.61127 241.761 6.07031 241.466 6.67685C241.174 7.28338 241.028 8.02746 241.028 8.90909C241.028 9.79072 241.174 10.5348 241.466 11.1413C241.761 11.7479 242.157 12.2069 242.654 12.5185C243.155 12.83 243.713 12.9858 244.33 12.9858C244.946 12.9858 245.503 12.83 246 12.5185C246.5 12.2069 246.897 11.7479 247.188 11.1413C247.483 10.5348 247.631 9.79072 247.631 8.90909ZM250.897 14V3.81818H254.337C255.133 3.81818 255.786 3.95407 256.296 4.22585C256.807 4.49432 257.184 4.86387 257.43 5.33452C257.675 5.80516 257.798 6.34044 257.798 6.94034C257.798 7.54025 257.675 8.07221 257.43 8.53622C257.184 9.00024 256.808 9.36482 256.301 9.62997C255.794 9.89181 255.146 10.0227 254.357 10.0227H251.573V8.90909H254.317C254.861 8.90909 255.299 8.82955 255.63 8.67045C255.965 8.51136 256.207 8.28598 256.356 7.99432C256.508 7.69934 256.585 7.34801 256.585 6.94034C256.585 6.53267 256.508 6.17637 256.356 5.87145C256.203 5.56652 255.96 5.3312 255.625 5.16548C255.29 4.99645 254.848 4.91193 254.298 4.91193H252.13V14H250.897ZM255.69 9.42614L258.195 14H256.763L254.298 9.42614H255.69Z" fill="#9A9A9A"/>
</svg>
