<svg width="45" height="45" viewBox="0 0 45 45" fill="none" xmlns="http://www.w3.org/2000/svg">
<rect width="45" height="45" rx="8" fill="#0F4EB5" fill-opacity="0.8"/>
<path d="M15.596 35H10.4129V18.3088H15.596V35ZM13.0017 16.0319C11.3443 16.0319 10 14.6591 10 13.0017C10 12.2056 10.3162 11.4421 10.8792 10.8792C11.4421 10.3163 12.2056 10 13.0017 10C13.7978 10 14.5613 10.3163 15.1242 10.8792C15.6871 11.4421 16.0033 12.2056 16.0033 13.0017C16.0033 14.6591 14.6585 16.0319 13.0017 16.0319ZM34.9944 35H29.8225V26.8748C29.8225 24.9384 29.7835 22.4551 27.1278 22.4551C24.433 22.4551 24.0201 24.5589 24.0201 26.7353V35H18.8426V18.3088H23.8136V20.5856H23.8862C24.5781 19.2742 26.2684 17.8902 28.7902 17.8902C34.0357 17.8902 35 21.3446 35 25.8313V35H34.9944Z" fill="white"/>
</svg>
