<svg width="55" height="55" viewBox="0 0 55 55" fill="none" xmlns="http://www.w3.org/2000/svg">
<path d="M50.0156 0H4.98438C2.23438 0 0 2.23438 0 4.98438V50.0156C0 52.7656 2.23438 55 4.98438 55H50.0156C52.7656 55 55 52.7656 55 50.0156V4.98438C55 2.23438 52.7656 0 50.0156 0ZM21.6194 13.9464C21.6685 16.8192 18.8694 17.298 18.3538 17.3103C16.5246 17.3103 15.0268 15.8371 15.0268 13.9955C15.0391 9.67411 21.5458 9.63728 21.6194 13.9464ZM40.8571 42.3549C32.8036 42.3549 36.6708 33.2701 37.7879 29.2679C39.519 23.5714 32.2388 22.0246 30.4342 29.3538L27.2667 42.0357H21.7299L22.7243 38.0458C18.8571 44.4051 11.1105 43.4967 11.1105 37.5179C11.1228 35.7623 11.221 35.7991 13.9342 24.7377H10.0301L11.221 20.3672H20.6004C16.4754 36.7812 16.5982 35.9464 16.5614 37.3337C16.5614 39.8996 21.5826 38.9911 23.6083 34.4855L26.0391 24.7377H22.0737L23.2645 20.3672H31.7109L30.6183 25.3393C35.5904 16.0703 46.3203 19.471 43.1161 30.0045C41.3728 36.2779 41.3237 36.2288 41.2868 37.2232C41.2868 39.1261 43.4353 39.9978 45.1908 35.1484L47.3884 35.971C46.0993 40.4766 43.779 42.3549 40.8571 42.3549Z" fill="white"/>
</svg>
