<svg width="87" height="87" viewBox="0 0 87 87" fill="none" xmlns="http://www.w3.org/2000/svg">
<g filter="url(#filter0_d_129_3)">
<path d="M57.9394 32.6244H44.8769V38.6406C44.8769 42.9056 42.1011 46.3756 38.6894 46.3756C35.2777 46.3756 32.5019 42.9056 32.5019 38.6406V25.5769L26.9246 29.7668C25.266 31.0022 24.2519 33.2475 24.2519 35.654V40.7355L17.377 45.6988C16.0621 46.6442 15.6066 48.7498 16.3715 50.3935L23.2465 65.2834C24.0027 66.9271 25.6871 67.4858 27.0019 66.5404L35.8879 60.1267H47.6269C50.6605 60.1267 53.1269 57.0435 53.1269 53.2512H54.5019C56.023 53.2512 57.2519 51.7149 57.2519 49.8134V42.9378H57.9394C59.0823 42.9378 60.0019 41.7883 60.0019 40.3594V35.2028C60.0019 33.7739 59.0823 32.6244 57.9394 32.6244ZM70.6323 28.6065L63.7573 13.7166C63.0011 12.0729 61.3167 11.5142 60.0019 12.4596L51.116 18.8733H42.3332C41.3019 18.8733 40.2964 19.2385 39.4199 19.9153L36.541 22.1606C35.7332 22.7837 35.2519 23.8903 35.2519 25.072V38.6406C35.2519 41.0148 36.7902 42.9378 38.6894 42.9378C40.5886 42.9378 42.1269 41.0148 42.1269 38.6406V29.1866H57.9394C60.5948 29.1866 62.7519 31.8831 62.7519 35.2028V38.2645L69.6269 33.3012C70.9417 32.3451 71.3886 30.2502 70.6323 28.6065Z" fill="#FFDBA6"/>
</g>
<defs>
<filter id="filter0_d_129_3" x="0" y="0" width="87" height="87" filterUnits="userSpaceOnUse" color-interpolation-filters="sRGB">
<feFlood flood-opacity="0" result="BackgroundImageFix"/>
<feColorMatrix in="SourceAlpha" type="matrix" values="0 0 0 0 0 0 0 0 0 0 0 0 0 0 0 0 0 0 127 0" result="hardAlpha"/>
<feOffset dy="4"/>
<feGaussianBlur stdDeviation="8"/>
<feComposite in2="hardAlpha" operator="out"/>
<feColorMatrix type="matrix" values="0 0 0 0 0 0 0 0 0 0 0 0 0 0 0 0 0 0 0.25 0"/>
<feBlend mode="normal" in2="BackgroundImageFix" result="effect1_dropShadow_129_3"/>
<feBlend mode="normal" in="SourceGraphic" in2="effect1_dropShadow_129_3" result="shape"/>
</filter>
</defs>
</svg>
