<svg width="25" height="25" viewBox="0 0 25 25" fill="none" xmlns="http://www.w3.org/2000/svg">
<path d="M21.4551 1.5625H3.54492C2.45117 1.5625 1.5625 2.45117 1.5625 3.54492V21.4551C1.5625 22.5488 2.45117 23.4375 3.54492 23.4375H21.4551C22.5488 23.4375 23.4375 22.5488 23.4375 21.4551V3.54492C23.4375 2.45117 22.5488 1.5625 21.4551 1.5625ZM10.1611 7.10938C10.1807 8.25195 9.06738 8.44238 8.8623 8.44727C8.13477 8.44727 7.53906 7.86133 7.53906 7.12891C7.54395 5.41016 10.1318 5.39551 10.1611 7.10938ZM17.8125 18.4082C14.6094 18.4082 16.1475 14.7949 16.5918 13.2031C17.2803 10.9375 14.3848 10.3223 13.667 13.2373L12.4072 18.2812H10.2051L10.6006 16.6943C9.0625 19.2236 5.98145 18.8623 5.98145 16.4844C5.98633 15.7861 6.02539 15.8008 7.10449 11.4014H5.55176L6.02539 9.66309H9.75586C8.11523 16.1914 8.16406 15.8594 8.14941 16.4111C8.14941 17.4316 10.1465 17.0703 10.9521 15.2783L11.9189 11.4014H10.3418L10.8154 9.66309H14.1748L13.7402 11.6406C15.7178 7.9541 19.9854 9.30664 18.7109 13.4961C18.0176 15.9912 17.998 15.9717 17.9834 16.3672C17.9834 17.124 18.8379 17.4707 19.5361 15.542L20.4102 15.8691C19.8975 17.6611 18.9746 18.4082 17.8125 18.4082Z" fill="black"/>
</svg>
