<svg width="30" height="30" viewBox="0 0 30 30" fill="none" xmlns="http://www.w3.org/2000/svg">
<path d="M25.7461 1.875H4.25391C2.94141 1.875 1.875 2.94141 1.875 4.25391V25.7461C1.875 27.0586 2.94141 28.125 4.25391 28.125H25.7461C27.0586 28.125 28.125 27.0586 28.125 25.7461V4.25391C28.125 2.94141 27.0586 1.875 25.7461 1.875ZM12.1934 8.53125C12.2168 9.90234 10.8809 10.1309 10.6348 10.1367C9.76172 10.1367 9.04688 9.43359 9.04688 8.55469C9.05273 6.49219 12.1582 6.47461 12.1934 8.53125ZM21.375 22.0898C17.5312 22.0898 19.377 17.7539 19.9102 15.8437C20.7363 13.125 17.2617 12.3867 16.4004 15.8848L14.8887 21.9375H12.2461L12.7207 20.0332C10.875 23.0684 7.17773 22.6348 7.17773 19.7813C7.18359 18.9434 7.23047 18.9609 8.52539 13.6816H6.66211L7.23047 11.5957H11.707C9.73828 19.4297 9.79687 19.0313 9.7793 19.6934C9.7793 20.918 12.1758 20.4844 13.1426 18.334L14.3027 13.6816H12.4102L12.9785 11.5957H17.0098L16.4883 13.9687C18.8613 9.54492 23.9824 11.168 22.4531 16.1953C21.6211 19.1895 21.5977 19.166 21.5801 19.6406C21.5801 20.5488 22.6055 20.9648 23.4434 18.6504L24.4922 19.043C23.877 21.1934 22.7695 22.0898 21.375 22.0898Z" fill="black"/>
</svg>
