<svg width="19" height="26" viewBox="0 0 19 26" fill="none" xmlns="http://www.w3.org/2000/svg">
<path d="M9.51514 17.3324C12.104 17.3324 14.2026 15.2338 14.2026 12.6449V4.8324C14.2026 2.24353 12.104 0.144897 9.51514 0.144897C6.92627 0.144897 4.82764 2.24353 4.82764 4.8324V12.6449C4.82764 15.2338 6.92627 17.3324 9.51514 17.3324ZM17.3276 9.5199H16.5464C16.1147 9.5199 15.7651 9.86951 15.7651 10.3011V12.6449C15.7651 16.2972 12.6162 19.2279 8.89063 18.8646C5.64356 18.5477 3.26514 15.6288 3.26514 12.3666V10.3011C3.26514 9.86951 2.91553 9.5199 2.48389 9.5199H1.70264C1.271 9.5199 0.921387 9.86951 0.921387 10.3011V12.2621C0.921387 16.639 4.04492 20.5409 8.34326 21.1337V22.8011H5.60889C5.17725 22.8011 4.82764 23.1508 4.82764 23.5824V24.3636C4.82764 24.7953 5.17725 25.1449 5.60889 25.1449H13.4214C13.853 25.1449 14.2026 24.7953 14.2026 24.3636V23.5824C14.2026 23.1508 13.853 22.8011 13.4214 22.8011H10.687V21.1522C14.8721 20.578 18.1089 16.9857 18.1089 12.6449V10.3011C18.1089 9.86951 17.7593 9.5199 17.3276 9.5199Z" fill="#FFEDD5"/>
</svg>
