<svg width="16" height="16" viewBox="0 0 16 16" fill="none" xmlns="http://www.w3.org/2000/svg">
<path d="M5.14286 16H1.71429C0.767857 16 0 15.2321 0 14.2857V1.71429C0 0.767857 0.767857 0 1.71429 0H5.14286C6.08929 0 6.85714 0.767857 6.85714 1.71429V14.2857C6.85714 15.2321 6.08929 16 5.14286 16ZM16 14.2857V1.71429C16 0.767857 15.2321 0 14.2857 0H10.8571C9.91071 0 9.14286 0.767857 9.14286 1.71429V14.2857C9.14286 15.2321 9.91071 16 10.8571 16H14.2857C15.2321 16 16 15.2321 16 14.2857Z" fill="white"/>
</svg>
