<svg width="18" height="18" viewBox="0 0 18 18" fill="none" xmlns="http://www.w3.org/2000/svg">
<path d="M9 0C13.9718 0 18 4.02823 18 9C18 13.9718 13.9718 18 9 18C4.02823 18 0 13.9718 0 9C0 4.02823 4.02823 0 9 0ZM7.95121 5.21129L10.6911 7.83871H4.06452C3.58185 7.83871 3.19355 8.22702 3.19355 8.70968V9.29032C3.19355 9.77298 3.58185 10.1613 4.06452 10.1613H10.6911L7.95121 12.7887C7.59919 13.1262 7.59194 13.6887 7.93669 14.0335L8.33589 14.429C8.67702 14.7702 9.22863 14.7702 9.56613 14.429L14.3819 9.61693C14.723 9.27581 14.723 8.72419 14.3819 8.38669L9.56613 3.56734C9.225 3.22621 8.67339 3.22621 8.33589 3.56734L7.93669 3.9629C7.59194 4.31129 7.59919 4.87379 7.95121 5.21129Z" fill="#FFEDD5"/>
</svg>
