<svg width="24" height="18" viewBox="0 0 24 18" fill="none" xmlns="http://www.w3.org/2000/svg">
<path d="M23.293 9.79624L15.4193 17.6699C14.7163 18.3729 13.4978 17.8808 13.4978 16.8732V12.3739H7.12382C6.50048 12.3739 5.999 11.8725 5.999 11.2491V6.74988C5.999 6.12654 6.50048 5.62506 7.12382 5.62506H13.4978V1.12581C13.4978 0.122852 14.7116 -0.373941 15.4193 0.329067L23.293 8.20276C23.7289 8.64331 23.7289 9.35569 23.293 9.79624ZM8.99851 17.4356V15.5609C8.99851 15.2516 8.74542 14.9985 8.4361 14.9985H4.49925C3.6697 14.9985 2.9995 14.3283 2.9995 13.4988V4.50025C2.9995 3.6707 3.6697 3.0005 4.49925 3.0005H8.4361C8.74542 3.0005 8.99851 2.74742 8.99851 2.43809V0.563403C8.99851 0.25408 8.74542 0.000996799 8.4361 0.000996799H4.49925C2.01529 0.000996799 0 2.01629 0 4.50025V13.4988C0 15.9827 2.01529 17.998 4.49925 17.998H8.4361C8.74542 17.998 8.99851 17.7449 8.99851 17.4356Z" fill="white"/>
</svg>
