<svg width="26" height="22" viewBox="0 0 26 22" fill="none" xmlns="http://www.w3.org/2000/svg">
<path d="M10.0028 3.16778L6.14128 7.02846H1.71159C1.13607 7.02846 0.669922 7.49461 0.669922 8.07013V14.3201C0.669922 14.8952 1.13607 15.3618 1.71159 15.3618H6.14128L10.0028 19.2225C10.6552 19.8748 11.781 19.4165 11.781 18.4859V3.90433C11.781 2.9729 10.6543 2.51631 10.0028 3.16778ZM20.1296 0.950769C19.6447 0.632627 18.9933 0.766742 18.6751 1.25242C18.3566 1.73723 18.492 2.3887 18.9768 2.70685C21.8531 4.59443 23.5697 7.76761 23.5697 11.1956C23.5697 14.6235 21.8531 17.7967 18.9768 19.6843C18.492 20.002 18.3566 20.6539 18.6751 21.1383C18.9807 21.6031 19.627 21.7702 20.1296 21.4399C23.5983 19.163 25.6699 15.3327 25.6699 11.1951C25.6699 7.05754 23.5983 3.22768 20.1296 0.950769ZM21.5033 11.1951C21.5033 8.43775 20.1118 5.90259 17.7806 4.41388C17.2949 4.10398 16.6508 4.24808 16.3431 4.73766C16.0354 5.22724 16.179 5.87525 16.6647 6.18558C18.39 7.28757 19.4199 9.15997 19.4199 11.1951C19.4199 13.2303 18.39 15.1027 16.6647 16.2047C16.179 16.5146 16.0354 17.1626 16.3431 17.6526C16.6256 18.1022 17.2598 18.3097 17.7806 17.9764C20.1118 16.4877 21.5033 13.9529 21.5033 11.1951ZM15.35 7.85876C14.8474 7.58402 14.2133 7.76501 13.9347 8.26891C13.6573 8.77282 13.8409 9.40606 14.3448 9.68428C14.9052 9.992 15.2533 10.5714 15.2533 11.1951C15.2533 11.8193 14.9052 12.3983 14.3453 12.706C13.8414 12.9842 13.6578 13.6174 13.9351 14.1213C14.2142 14.6274 14.8487 14.8071 15.3505 14.5315C16.5757 13.8566 17.337 12.5784 17.337 11.1947C17.337 9.81101 16.5757 8.53323 15.35 7.85876Z" fill="black"/>
</svg>
