<svg width="30" height="25" viewBox="0 0 30 25" fill="none" xmlns="http://www.w3.org/2000/svg">
<path d="M26.9163 6.23045C26.9354 6.50387 26.9354 6.77735 26.9354 7.05078C26.9354 15.3906 20.7488 25 9.44166 25C5.95813 25 2.7221 23.9648 0 22.168C0.494943 22.2266 0.970785 22.2461 1.48477 22.2461C4.3591 22.2461 7.00509 21.25 9.11804 19.5508C6.41499 19.4922 4.14974 17.6758 3.36927 15.1758C3.75001 15.2343 4.1307 15.2734 4.53049 15.2734C5.0825 15.2734 5.63457 15.1953 6.1485 15.0586C3.33124 14.4726 1.21823 11.9336 1.21823 8.86718V8.78908C2.03673 9.25783 2.98859 9.5508 3.9974 9.58981C2.3413 8.45698 1.25631 6.52341 1.25631 4.33589C1.25631 3.16404 1.56083 2.08982 2.09386 1.15231C5.12053 4.98044 9.67006 7.48039 14.7715 7.75388C14.6764 7.28513 14.6193 6.79689 14.6193 6.3086C14.6193 2.832 17.3604 0 20.7678 0C22.5381 0 24.137 0.761717 25.2602 1.99219C26.6497 1.71876 27.9822 1.19139 29.1625 0.468753C28.7055 1.93363 27.7348 3.1641 26.4594 3.9453C27.6967 3.80864 28.896 3.457 30 2.96877C29.1626 4.21872 28.1156 5.33196 26.9163 6.23045Z" fill="white"/>
</svg>
