<svg width="26" height="19" viewBox="0 0 26 19" fill="none" xmlns="http://www.w3.org/2000/svg">
<path d="M21.9932 8.10544C22.1533 7.68747 22.2432 7.23044 22.2432 6.75388C22.2432 4.68356 20.5635 3.00388 18.4932 3.00388C17.7236 3.00388 17.0049 3.23825 16.4111 3.63669C15.3291 1.76169 13.3096 0.503876 10.9932 0.503876C7.54004 0.503876 4.74316 3.30075 4.74316 6.75388C4.74316 6.85934 4.74707 6.96481 4.75098 7.07028C2.56348 7.83981 0.993164 9.92575 0.993164 12.3789C0.993164 15.4843 3.5127 18.0039 6.61816 18.0039H20.9932C23.7549 18.0039 25.9932 15.7656 25.9932 13.0039C25.9932 10.5859 24.2744 8.56638 21.9932 8.10544ZM16.3604 10.5039H13.8057V14.8789C13.8057 15.2226 13.5244 15.5039 13.1807 15.5039H11.3057C10.9619 15.5039 10.6807 15.2226 10.6807 14.8789V10.5039H8.12598C7.56738 10.5039 7.29004 9.832 7.68457 9.43747L11.8018 5.32028C12.0439 5.07809 12.4424 5.07809 12.6846 5.32028L16.8018 9.43747C17.1963 9.832 16.915 10.5039 16.3604 10.5039Z" fill="#FFEDD5"/>
</svg>
