<svg width="35" height="35" viewBox="0 0 35 35" fill="none" xmlns="http://www.w3.org/2000/svg">
<path d="M31.8281 0H3.17187C1.42187 0 0 1.42187 0 3.17187V31.8281C0 33.5781 1.42187 35 3.17187 35H31.8281C33.5781 35 35 33.5781 35 31.8281V3.17187C35 1.42187 33.5781 0 31.8281 0ZM13.7578 8.875C13.7891 10.7031 12.0078 11.0078 11.6797 11.0156C10.5156 11.0156 9.5625 10.0781 9.5625 8.90625C9.57031 6.15625 13.7109 6.13281 13.7578 8.875ZM26 26.9531C20.875 26.9531 23.3359 21.1719 24.0469 18.625C25.1484 15 20.5156 14.0156 19.3672 18.6797L17.3516 26.75H13.8281L14.4609 24.2109C12 28.2578 7.07031 27.6797 7.07031 23.875C7.07813 22.7578 7.14062 22.7812 8.86719 15.7422H6.38281L7.14063 12.9609H13.1094C10.4844 23.4062 10.5625 22.875 10.5391 23.7578C10.5391 25.3906 13.7344 24.8125 15.0234 21.9453L16.5703 15.7422H14.0469L14.8047 12.9609H20.1797L19.4844 16.125C22.6484 10.2266 29.4766 12.3906 27.4375 19.0937C26.3281 23.0859 26.2969 23.0547 26.2734 23.6875C26.2734 24.8984 27.6406 25.4531 28.7578 22.3672L30.1562 22.8906C29.3359 25.7578 27.8594 26.9531 26 26.9531Z" fill="black"/>
</svg>
