<?xml version="1.0" standalone="no"?>
<!DOCTYPE svg PUBLIC "-//W3C//DTD SVG 20010904//EN"
 "http://www.w3.org/TR/2001/REC-SVG-20010904/DTD/svg10.dtd">
<svg version="1.0" xmlns="http://www.w3.org/2000/svg"
 width="700.000000pt" height="700.000000pt" viewBox="0 0 700.000000 700.000000"
 preserveAspectRatio="xMidYMid meet">
<metadata>
Created by potrace 1.14, written by Peter Selinger 2001-2017
</metadata>
<g transform="translate(0.000000,700.000000) scale(0.100000,-0.100000)"
fill="#000000" stroke="none">
<path d="M4956 6043 c-4 -4 -19 -9 -34 -10 -45 -6 -83 -25 -152 -75 -36 -27
-74 -55 -86 -63 -11 -9 -79 -58 -149 -109 -71 -52 -134 -92 -139 -89 -5 3 -6
1 -2 -5 3 -6 -3 -13 -14 -17 -11 -3 -20 -11 -20 -16 0 -5 -6 -9 -14 -9 -8 0
-16 -3 -18 -7 -1 -5 -50 -42 -108 -84 l-106 -76 -375 -1 c-251 0 -390 -4 -420
-12 -43 -11 -141 -61 -164 -84 -12 -11 -49 -40 -120 -95 -22 -17 -44 -34 -50
-39 -5 -4 -23 -17 -39 -30 -44 -34 -75 -81 -93 -142 -14 -48 -17 -130 -18
-630 -1 -411 2 -592 11 -635 6 -33 10 -63 7 -67 -2 -5 -1 -8 4 -8 7 0 38 -58
37 -70 -1 -6 100 -103 104 -100 1 1 17 -4 35 -11 18 -6 40 -11 51 -10 13 2 16
-1 10 -11 -6 -10 -4 -11 7 -2 8 6 29 11 48 12 34 3 109 41 131 67 7 8 17 12
23 8 5 -3 7 -1 4 4 -4 6 2 22 13 35 23 30 56 111 64 159 3 19 6 213 6 432 l0
397 118 0 c81 0 122 -4 131 -12 11 -10 12 -10 7 -1 -6 10 105 13 530 13 458
-1 545 -3 584 -16 61 -21 112 -53 104 -66 -4 -6 -2 -8 3 -5 6 4 27 -10 47 -30
35 -36 48 -62 24 -47 -7 4 -8 3 -4 -5 4 -6 11 -9 16 -6 19 12 102 -196 86
-212 -3 -4 -1 -12 4 -19 6 -6 10 -16 9 -20 -1 -5 -1 -76 0 -158 1 -123 3 -147
14 -137 8 6 18 7 22 3 5 -4 6 -2 3 3 -5 8 179 149 260 200 9 6 27 20 41 33 15
12 32 20 39 17 7 -3 11 -1 8 4 -3 5 22 28 57 52 68 47 182 139 173 139 -4 0 4
19 16 43 19 35 23 57 23 137 0 84 -3 102 -29 155 -16 33 -41 87 -56 120 -70
152 -86 188 -141 304 -33 68 -59 126 -59 128 0 3 -14 34 -31 69 -16 35 -27 69
-23 76 4 6 3 8 -3 5 -5 -3 -22 22 -38 56 -15 34 -43 96 -62 137 -20 41 -49
104 -65 140 -76 163 -92 193 -126 226 -19 19 -52 39 -73 46 -21 6 -36 15 -33
19 6 11 0 12 -10 2z"/>
<path d="M2518 4869 c-45 -35 -83 -57 -89 -53 -7 4 -9 3 -6 -3 4 -6 -60 -60
-142 -122 -126 -94 -170 -134 -229 -206 -18 -22 -63 -127 -78 -182 -22 -82
-23 -110 -24 -359 0 -172 -3 -224 -14 -233 -7 -6 -16 -8 -19 -4 -4 3 -7 1 -7
-5 0 -6 -53 -48 -117 -93 -103 -72 -147 -104 -189 -138 -5 -4 -20 -13 -31 -20
-12 -6 -27 -17 -35 -24 -7 -7 -43 -34 -81 -60 -124 -88 -156 -139 -164 -257
-6 -78 2 -117 37 -195 22 -49 92 -199 130 -280 74 -156 99 -216 96 -228 -1 -6
-1 -8 2 -3 4 7 82 -144 82 -159 0 -2 18 -43 41 -92 23 -48 54 -115 69 -148
124 -266 148 -312 184 -342 20 -18 41 -33 47 -33 6 0 8 -3 6 -7 -8 -13 105
-15 137 -2 17 7 46 23 64 36 17 13 32 22 32 19 0 -3 11 6 25 20 15 15 30 22
38 18 6 -4 9 -4 5 1 -10 11 39 48 53 39 7 -4 9 -3 6 3 -5 9 95 89 120 96 4 1
17 11 29 22 30 27 45 38 79 61 17 10 37 24 45 31 66 53 125 91 132 87 5 -3 7
0 6 8 -2 9 7 12 27 11 22 -2 26 0 15 7 -13 8 -12 11 5 24 11 9 25 14 32 11 7
-2 15 1 19 7 5 7 2 8 -7 3 -8 -5 -7 0 3 10 10 10 33 20 53 21 20 2 40 6 45 9
6 3 10 2 10 -4 0 -6 11 -6 30 -1 17 5 30 5 30 0 0 -5 7 -7 15 -4 21 8 265 11
265 3 0 -4 18 -3 40 1 22 4 40 3 40 -2 0 -5 8 -5 18 1 10 6 24 6 32 1 8 -5 18
-6 23 -3 7 4 205 5 277 2 103 -5 251 24 291 58 8 7 20 13 26 13 6 0 13 3 15 8
2 4 24 26 50 50 26 23 45 42 42 42 -3 0 4 13 16 29 52 73 99 213 100 296 0 22
4 45 8 50 10 15 55 18 46 3 -5 -7 -3 -8 7 -3 7 5 33 10 56 11 100 6 184 84
208 192 3 17 12 32 18 32 8 0 8 3 2 8 -13 9 -14 62 -2 62 6 0 6 5 1 13 -7 9
-10 353 -5 502 1 18 9 21 49 23 72 5 91 7 87 10 -4 4 54 85 83 116 9 11 13 17
7 13 -7 -3 -10 89 -10 267 0 265 -1 274 -23 323 -19 40 -35 56 -77 80 -33 19
-58 28 -66 23 -7 -5 -20 -5 -29 0 -9 5 -21 5 -28 1 -16 -10 -124 -7 -141 3 -9
6 -12 5 -8 -1 7 -12 -43 -10 -63 2 -9 5 -11 4 -6 -3 4 -7 2 -12 -3 -12 -6 0
-11 6 -11 13 0 9 -3 8 -9 -2 -6 -9 -11 -10 -15 -2 -4 6 -12 8 -18 5 -19 -12
-92 -11 -107 0 -11 8 -13 8 -8 0 7 -13 -42 -12 -63 1 -9 5 -11 4 -6 -3 4 -7 2
-12 -3 -12 -6 0 -11 6 -11 13 0 9 -3 8 -9 -2 -6 -9 -11 -10 -15 -2 -4 6 -12 8
-18 5 -19 -12 -92 -11 -107 0 -9 7 -12 7 -9 1 8 -13 -101 -13 -121 0 -9 5 -12
4 -7 -3 7 -12 -41 -11 -61 1 -6 4 -14 3 -18 -2 -6 -10 -37 -7 -57 5 -6 4 -8 3
-5 -3 5 -7 -10 -10 -43 -8 l-49 3 -4 -291 c-3 -161 -5 -299 -6 -307 -7 -49
-25 -120 -30 -120 -4 0 -8 -11 -9 -24 -2 -33 -55 -129 -100 -186 -42 -52 -53
-61 -66 -53 -5 3 -6 1 -2 -5 12 -21 -89 -82 -187 -112 -55 -17 -191 -6 -251
20 -42 19 -46 23 -34 38 12 15 11 16 -4 3 -15 -11 -22 -11 -43 3 -14 9 -23 22
-19 28 4 7 3 8 -5 4 -15 -10 -74 50 -65 66 4 7 3 8 -4 4 -10 -6 -54 42 -55 61
0 4 -7 13 -15 19 -9 7 -12 16 -7 24 5 8 4 11 -1 7 -17 -10 -70 133 -80 219
-11 87 -10 304 1 304 7 0 7 3 0 8 -13 9 -14 483 -1 475 5 -4 6 0 1 7 -12 19
-13 160 -2 160 6 0 6 5 0 13 -5 6 -9 51 -8 100 1 55 -3 87 -9 87 -6 0 -46 -28
-88 -61z"/>
<path d="M4576 4602 c-3 -5 1 -9 9 -9 8 0 12 4 9 9 -3 4 -7 8 -9 8 -2 0 -6 -4
-9 -8z"/>
<path d="M4635 4599 c-3 -4 2 -6 10 -5 21 3 28 13 10 13 -9 0 -18 -4 -20 -8z"/>
<path d="M4070 4583 c0 -6 8 -17 18 -24 16 -13 16 -13 2 6 -8 11 -16 22 -17
24 -2 2 -3 0 -3 -6z"/>
<path d="M3965 4560 c-3 -6 1 -7 9 -4 18 7 21 14 7 14 -6 0 -13 -4 -16 -10z"/>
<path d="M4290 4560 c0 -5 5 -10 11 -10 5 0 7 5 4 10 -3 6 -8 10 -11 10 -2 0
-4 -4 -4 -10z"/>
<path d="M4470 4539 c0 -5 5 -7 10 -4 6 3 10 8 10 11 0 2 -4 4 -10 4 -5 0 -10
-5 -10 -11z"/>
<path d="M3669 4523 c-13 -16 -12 -17 4 -4 9 7 17 15 17 17 0 8 -8 3 -21 -13z"/>
<path d="M4073 4515 c0 -8 4 -12 9 -9 5 3 6 10 3 15 -9 13 -12 11 -12 -6z"/>
<path d="M3876 4493 c-6 -14 -5 -15 5 -6 7 7 10 15 7 18 -3 3 -9 -2 -12 -12z"/>
<path d="M4356 4493 c-6 -14 -5 -15 5 -6 7 7 10 15 7 18 -3 3 -9 -2 -12 -12z"/>
<path d="M4430 4500 c0 -5 5 -10 11 -10 5 0 7 5 4 10 -3 6 -8 10 -11 10 -2 0
-4 -4 -4 -10z"/>
<path d="M4596 4493 c-6 -14 -5 -15 5 -6 7 7 10 15 7 18 -3 3 -9 -2 -12 -12z"/>
<path d="M4010 4486 c0 -2 7 -7 16 -10 8 -3 12 -2 9 4 -6 10 -25 14 -25 6z"/>
<path d="M4290 4479 c0 -5 5 -7 10 -4 6 3 10 8 10 11 0 2 -4 4 -10 4 -5 0 -10
-5 -10 -11z"/>
<path d="M3715 4469 c-4 -6 -5 -12 -2 -15 2 -3 7 2 10 11 7 17 1 20 -8 4z"/>
<path d="M4056 4462 c-3 -5 1 -9 9 -9 8 0 12 4 9 9 -3 4 -7 8 -9 8 -2 0 -6 -4
-9 -8z"/>
<path d="M4246 4462 c-3 -5 1 -9 9 -9 8 0 12 4 9 9 -3 4 -7 8 -9 8 -2 0 -6 -4
-9 -8z"/>
<path d="M4515 4451 c-3 -5 -2 -12 3 -15 5 -3 9 1 9 9 0 17 -3 19 -12 6z"/>
<path d="M3965 4440 c-3 -6 1 -7 9 -4 18 7 21 14 7 14 -6 0 -13 -4 -16 -10z"/>
<path d="M4325 4440 c-3 -6 1 -7 9 -4 18 7 21 14 7 14 -6 0 -13 -4 -16 -10z"/>
<path d="M4445 4440 c-3 -6 1 -7 9 -4 18 7 21 14 7 14 -6 0 -13 -4 -16 -10z"/>
<path d="M4567 4439 c7 -7 15 -10 18 -7 3 3 -2 9 -12 12 -14 6 -15 5 -6 -5z"/>
<path d="M4866 4442 c-2 -4 4 -8 14 -8 10 0 16 4 14 8 -3 4 -9 8 -14 8 -5 0
-11 -4 -14 -8z"/>
<path d="M4785 4360 c-3 -6 1 -7 9 -4 18 7 21 14 7 14 -6 0 -13 -4 -16 -10z"/>
<path d="M3513 4335 c0 -8 4 -12 9 -9 5 3 6 10 3 15 -9 13 -12 11 -12 -6z"/>
<path d="M3430 4296 c0 -2 8 -10 18 -17 15 -13 16 -12 3 4 -13 16 -21 21 -21
13z"/>
<path d="M2706 4278 c3 -5 10 -6 15 -3 13 9 11 12 -6 12 -8 0 -12 -4 -9 -9z"/>
<path d="M3540 4280 c-9 -6 -10 -10 -3 -10 6 0 15 5 18 10 8 12 4 12 -15 0z"/>
<path d="M3510 4220 c0 -5 5 -10 11 -10 5 0 7 5 4 10 -3 6 -8 10 -11 10 -2 0
-4 -4 -4 -10z"/>
<path d="M3510 4160 c0 -5 5 -10 11 -10 5 0 7 5 4 10 -3 6 -8 10 -11 10 -2 0
-4 -4 -4 -10z"/>
<path d="M3495 4111 c-3 -5 -2 -12 3 -15 5 -3 9 1 9 9 0 17 -3 19 -12 6z"/>
<path d="M3565 4080 c-3 -6 1 -7 9 -4 18 7 21 14 7 14 -6 0 -13 -4 -16 -10z"/>
<path d="M3475 4069 c-4 -6 -5 -12 -2 -15 2 -3 7 2 10 11 7 17 1 20 -8 4z"/>
<path d="M3515 4060 c3 -5 8 -10 11 -10 2 0 4 5 4 10 0 6 -5 10 -11 10 -5 0
-7 -4 -4 -10z"/>
<path d="M3496 4022 c-3 -4 4 -9 15 -9 23 -2 25 3 4 10 -8 4 -16 3 -19 -1z"/>
<path d="M3555 4020 c-3 -5 -1 -10 4 -10 6 0 11 5 11 10 0 6 -2 10 -4 10 -3 0
-8 -4 -11 -10z"/>
<path d="M3536 3982 c-2 -4 -1 -14 4 -22 7 -11 9 -9 7 8 -1 24 -3 26 -11 14z"/>
<path d="M5190 3920 c0 -5 5 -10 11 -10 5 0 7 5 4 10 -3 6 -8 10 -11 10 -2 0
-4 -4 -4 -10z"/>
<path d="M3440 3880 c-9 -6 -10 -10 -3 -10 6 0 15 5 18 10 8 12 4 12 -15 0z"/>
<path d="M3499 3888 c-5 -18 -6 -38 -1 -34 7 8 12 36 6 36 -2 0 -4 -1 -5 -2z"/>
<path d="M4956 3873 c-6 -14 -5 -15 5 -6 7 7 10 15 7 18 -3 3 -9 -2 -12 -12z"/>
<path d="M5039 3833 c-13 -16 -12 -17 4 -4 16 13 21 21 13 21 -2 0 -10 -8 -17
-17z"/>
<path d="M5100 3846 c0 -2 8 -10 18 -17 15 -13 16 -12 3 4 -13 16 -21 21 -21
13z"/>
<path d="M3406 3822 c-3 -5 1 -9 9 -9 8 0 12 4 9 9 -3 4 -7 8 -9 8 -2 0 -6 -4
-9 -8z"/>
<path d="M3470 3819 c0 -5 5 -7 10 -4 6 3 10 8 10 11 0 2 -4 4 -10 4 -5 0 -10
-5 -10 -11z"/>
<path d="M3515 3801 c-3 -5 -2 -12 3 -15 5 -3 9 1 9 9 0 17 -3 19 -12 6z"/>
<path d="M5235 3800 c-3 -5 -1 -10 4 -10 6 0 11 5 11 10 0 6 -2 10 -4 10 -3 0
-8 -4 -11 -10z"/>
<path d="M2675 3760 c-3 -5 -1 -10 4 -10 6 0 11 5 11 10 0 6 -2 10 -4 10 -3 0
-8 -4 -11 -10z"/>
<path d="M3475 3739 c-3 -4 2 -6 10 -5 21 3 28 13 10 13 -9 0 -18 -4 -20 -8z"/>
<path d="M3430 3720 c0 -5 5 -10 11 -10 5 0 7 5 4 10 -3 6 -8 10 -11 10 -2 0
-4 -4 -4 -10z"/>
<path d="M3474 3702 c4 -3 14 -7 22 -8 9 -1 13 0 10 4 -4 3 -14 7 -22 8 -9 1
-13 0 -10 -4z"/>
<path d="M3534 3702 c4 -3 14 -7 22 -8 9 -1 13 0 10 4 -4 3 -14 7 -22 8 -9 1
-13 0 -10 -4z"/>
<path d="M2675 3680 c3 -5 8 -10 11 -10 2 0 4 5 4 10 0 6 -5 10 -11 10 -5 0
-7 -4 -4 -10z"/>
<path d="M3375 3680 c3 -5 8 -10 11 -10 2 0 4 5 4 10 0 6 -5 10 -11 10 -5 0
-7 -4 -4 -10z"/>
<path d="M3509 3643 c-13 -16 -12 -17 4 -4 9 7 17 15 17 17 0 8 -8 3 -21 -13z"/>
<path d="M3461 3636 c-9 -11 -9 -16 1 -22 7 -4 10 -4 6 1 -4 4 -3 14 3 22 6 7
9 13 6 13 -2 0 -10 -6 -16 -14z"/>
<path d="M4953 3635 c0 -8 4 -12 9 -9 5 3 6 10 3 15 -9 13 -12 11 -12 -6z"/>
<path d="M3374 3596 c1 -8 5 -18 8 -22 4 -3 5 1 4 10 -1 8 -5 18 -8 22 -4 3
-5 -1 -4 -10z"/>
<path d="M2910 3579 c0 -5 5 -7 10 -4 6 3 10 8 10 11 0 2 -4 4 -10 4 -5 0 -10
-5 -10 -11z"/>
<path d="M3336 3578 c3 -5 10 -6 15 -3 13 9 11 12 -6 12 -8 0 -12 -4 -9 -9z"/>
<path d="M3453 3575 c0 -8 4 -12 9 -9 5 3 6 10 3 15 -9 13 -12 11 -12 -6z"/>
<path d="M2846 3538 c3 -5 10 -6 15 -3 13 9 11 12 -6 12 -8 0 -12 -4 -9 -9z"/>
<path d="M2976 3542 c-2 -4 -1 -14 4 -22 7 -11 9 -9 7 8 -1 24 -3 26 -11 14z"/>
<path d="M3374 3536 c1 -8 5 -18 8 -22 4 -3 5 1 4 10 -1 8 -5 18 -8 22 -4 3
-5 -1 -4 -10z"/>
<path d="M3016 3498 c3 -4 11 -5 19 -1 21 7 19 12 -4 10 -11 0 -18 -5 -15 -9z"/>
<path d="M3134 3502 c4 -3 14 -7 22 -8 9 -1 13 0 10 4 -4 3 -14 7 -22 8 -9 1
-13 0 -10 -4z"/>
<path d="M3219 3508 c-5 -18 -6 -38 -1 -34 7 8 12 36 6 36 -2 0 -4 -1 -5 -2z"/>
<path d="M3294 3502 c4 -3 14 -7 22 -8 9 -1 13 0 10 4 -4 3 -14 7 -22 8 -9 1
-13 0 -10 -4z"/>
<path d="M3453 3503 c4 -3 1 -13 -6 -22 -11 -14 -10 -14 5 -2 16 12 16 31 1
31 -4 0 -3 -3 0 -7z"/>
<path d="M3095 3471 c-3 -5 -2 -12 3 -15 5 -3 9 1 9 9 0 17 -3 19 -12 6z"/>
<path d="M2879 3453 c-12 -16 -12 -17 2 -6 9 7 20 9 24 5 5 -4 5 -1 1 6 -9 16
-11 15 -27 -5z"/>
<path d="M2995 3459 c-3 -4 2 -6 10 -5 21 3 28 13 10 13 -9 0 -18 -4 -20 -8z"/>
<path d="M3254 3462 c4 -3 14 -7 22 -8 9 -1 13 0 10 4 -4 3 -14 7 -22 8 -9 1
-13 0 -10 -4z"/>
<path d="M3374 3462 c4 -3 14 -7 22 -8 9 -1 13 0 10 4 -4 3 -14 7 -22 8 -9 1
-13 0 -10 -4z"/>
<path d="M2939 3448 c-5 -18 -6 -38 -1 -34 7 8 12 36 6 36 -2 0 -4 -1 -5 -2z"/>
<path d="M3174 3436 c1 -8 5 -18 8 -22 4 -3 5 1 4 10 -1 8 -5 18 -8 22 -4 3
-5 -1 -4 -10z"/>
<path d="M2810 3419 c0 -5 5 -7 10 -4 6 3 10 8 10 11 0 2 -4 4 -10 4 -5 0 -10
-5 -10 -11z"/>
<path d="M3093 3423 c4 -3 1 -13 -6 -22 -11 -14 -10 -14 5 -2 16 12 16 31 1
31 -4 0 -3 -3 0 -7z"/>
<path d="M3330 3420 c0 -5 5 -10 11 -10 5 0 7 5 4 10 -3 6 -8 10 -11 10 -2 0
-4 -4 -4 -10z"/>
<path d="M3376 3422 c-3 -5 1 -9 9 -9 8 0 12 4 9 9 -3 4 -7 8 -9 8 -2 0 -6 -4
-9 -8z"/>
<path d="M2906 3402 c-3 -5 1 -9 9 -9 8 0 12 4 9 9 -3 4 -7 8 -9 8 -2 0 -6 -4
-9 -8z"/>
<path d="M3119 3393 c-13 -16 -12 -17 4 -4 16 13 21 21 13 21 -2 0 -10 -8 -17
-17z"/>
<path d="M2973 3385 c0 -8 4 -12 9 -9 5 3 6 10 3 15 -9 13 -12 11 -12 -6z"/>
<path d="M3174 3376 c1 -8 5 -18 8 -22 4 -3 5 1 4 10 -1 8 -5 18 -8 22 -4 3
-5 -1 -4 -10z"/>
<path d="M3219 3388 c-5 -18 -6 -38 -1 -34 7 8 12 36 6 36 -2 0 -4 -1 -5 -2z"/>
<path d="M2976 3342 c-2 -4 -1 -14 4 -22 7 -11 9 -9 7 8 -1 24 -3 26 -11 14z"/>
<path d="M3096 3341 c-3 -4 4 -17 17 -27 22 -19 22 -19 4 2 -9 11 -14 24 -10
27 3 4 4 7 0 7 -3 0 -8 -4 -11 -9z"/>
<path d="M4710 3326 c0 -2 7 -7 16 -10 8 -3 12 -2 9 4 -6 10 -25 14 -25 6z"/>
<path d="M3010 3299 c0 -5 5 -7 10 -4 6 3 10 8 10 11 0 2 -4 4 -10 4 -5 0 -10
-5 -10 -11z"/>
<path d="M4790 3266 c0 -2 7 -7 16 -10 8 -3 12 -2 9 4 -6 10 -25 14 -25 6z"/>
<path d="M1475 2489 c-4 -6 -5 -12 -2 -15 2 -3 7 2 10 11 7 17 1 20 -8 4z"/>
<path d="M4467 2459 c7 -7 15 -10 18 -7 3 3 -2 9 -12 12 -14 6 -15 5 -6 -5z"/>
<path d="M3920 2160 c-9 -6 -10 -10 -3 -10 6 0 15 5 18 10 8 12 4 12 -15 0z"/>
<path d="M3070 2080 c0 -5 5 -10 11 -10 5 0 7 5 4 10 -3 6 -8 10 -11 10 -2 0
-4 -4 -4 -10z"/>
<path d="M3146 2078 c3 -5 10 -6 15 -3 13 9 11 12 -6 12 -8 0 -12 -4 -9 -9z"/>
<path d="M3265 2080 c-3 -6 1 -7 9 -4 18 7 21 14 7 14 -6 0 -13 -4 -16 -10z"/>
<path d="M1393 2035 c0 -8 4 -12 9 -9 5 3 6 10 3 15 -9 13 -12 11 -12 -6z"/>
<path d="M2766 2042 c-3 -5 1 -9 9 -9 8 0 12 4 9 9 -3 4 -7 8 -9 8 -2 0 -6 -4
-9 -8z"/>
<path d="M4433 1995 c0 -8 4 -12 9 -9 5 3 6 10 3 15 -9 13 -12 11 -12 -6z"/>
<path d="M3595 1920 c-3 -5 -1 -10 4 -10 6 0 11 5 11 10 0 6 -2 10 -4 10 -3 0
-8 -4 -11 -10z"/>
<path d="M3233 1765 c0 -8 4 -12 9 -9 5 3 6 10 3 15 -9 13 -12 11 -12 -6z"/>
<path d="M3745 1720 c-3 -6 1 -7 9 -4 18 7 21 14 7 14 -6 0 -13 -4 -16 -10z"/>
<path d="M2550 1696 c0 -2 8 -10 18 -17 15 -13 16 -12 3 4 -13 16 -21 21 -21
13z"/>
<path d="M2356 1287 c3 -10 9 -15 12 -12 3 3 0 11 -7 18 -10 9 -11 8 -5 -6z"/>
</g>
</svg>
